<svg width="1087" height="200" viewBox="0 0 1087 200" fill="none" xmlns="http://www.w3.org/2000/svg">
<rect width="200" height="200" rx="24" fill="#465FFF"/>
<path d="M50 36H150V55.0506H69.1296V145.859H150V165H50V36ZM80.0091 88.3439H150V107.395H80.0091V88.3439Z" fill="white"/>
<path d="M1019.92 79.6226C1019.92 75.5548 1021.37 72.0949 1024.27 69.2428C1027.22 66.344 1030.75 64.8945 1034.86 64.8945H1060.46C1065.27 64.8945 1069.67 66.0868 1073.64 68.4713C1077.62 70.8091 1080.77 73.9651 1083.11 77.9394C1085.5 81.9136 1086.69 86.3087 1086.69 91.1245V137.553H1071.89V91.3349C1071.89 88.062 1070.77 85.28 1068.52 82.989C1066.33 80.698 1063.64 79.5524 1060.46 79.5524H1034.72V137.553H1019.92V79.6226Z" fill="white"/>
<path d="M935.481 91.1245C935.481 86.3087 936.65 81.9136 938.988 77.9394C941.372 73.9651 944.552 70.8091 948.526 68.4713C952.5 66.0868 956.895 64.8945 961.711 64.8945H977.561C982.377 64.8945 986.772 66.0868 990.746 68.4713C994.72 70.8091 997.876 73.9651 1000.21 77.9394C1002.6 81.9136 1003.79 86.3087 1003.79 91.1245V111.323C1003.79 116.139 1002.6 120.534 1000.21 124.508C997.876 128.482 994.72 131.662 990.746 134.046C986.772 136.384 982.377 137.553 977.561 137.553H961.711C956.895 137.553 952.5 136.384 948.526 134.046C944.552 131.662 941.372 128.482 938.988 124.508C936.65 120.534 935.481 116.139 935.481 111.323V91.1245ZM950.279 111.183C950.279 114.362 951.401 117.097 953.646 119.388C955.89 121.633 958.578 122.755 961.711 122.755H977.561C980.74 122.755 983.429 121.633 985.626 119.388C987.871 117.097 988.993 114.362 988.993 111.183V91.2648C988.993 88.0854 987.871 85.3735 985.626 83.1293C983.429 80.8382 980.74 79.6927 977.561 79.6927H961.711C958.578 79.6927 955.89 80.8382 953.646 83.1293C951.401 85.3735 950.279 88.0854 950.279 91.2648V111.183Z" fill="white"/>
<path d="M902.799 45.1174C902.799 42.5926 903.687 40.4418 905.464 38.6651C907.241 36.8884 909.391 36 911.916 36C914.441 36 916.592 36.8884 918.368 38.6651C920.145 40.4418 921.033 42.5926 921.033 45.1174C921.033 47.6422 920.145 49.7929 918.368 51.5697C916.592 53.3464 914.441 54.2347 911.916 54.2347C909.391 54.2347 907.241 53.3464 905.464 51.5697C903.687 49.7929 902.799 47.6422 902.799 45.1174ZM904.482 64.895H919.35V137.553H904.482V64.895Z" fill="white"/>
<path d="M844.448 64.8958H853.916V37.8242H868.714V64.8958H891.086V79.694H868.714V116.935C868.714 118.525 869.322 119.904 870.537 121.073C871.8 122.195 873.296 122.756 875.026 122.756H891.086V137.554H874.815C870.981 137.554 867.475 136.642 864.295 134.819C861.163 132.949 858.638 130.471 856.721 127.385C854.851 124.252 853.916 120.792 853.916 117.005V79.694H844.448V64.8958Z" fill="white"/>
<path d="M764.355 90.9842C764.355 86.1684 765.524 81.7967 767.862 77.8692C770.246 73.9418 773.426 70.8091 777.4 68.4713C781.374 66.0868 785.769 64.8945 790.585 64.8945H831.122V137.553H816.324V79.6927H790.585C787.452 79.6927 784.764 80.8149 782.52 83.0591C780.275 85.2566 779.153 87.9451 779.153 91.1245V111.183C779.153 114.362 780.275 117.097 782.52 119.388C784.764 121.633 787.452 122.755 790.585 122.755H807.908V137.553H790.585C785.769 137.553 781.374 136.384 777.4 134.046C773.426 131.662 770.246 128.482 767.862 124.508C765.524 120.534 764.355 116.139 764.355 111.323V90.9842Z" fill="white"/>
<path d="M705.022 64.8958H714.49V37.8242H729.288V64.8958H751.661V79.694H729.288V116.935C729.288 118.525 729.896 119.904 731.112 121.073C732.374 122.195 733.87 122.756 735.6 122.756H751.661V137.554H735.39C731.556 137.554 728.049 136.642 724.87 134.819C721.737 132.949 719.212 130.471 717.295 127.385C715.425 124.252 714.49 120.792 714.49 117.005V79.694H705.022V64.8958Z" fill="white"/>
<path d="M624.929 79.6226C624.929 75.5548 626.379 72.0949 629.278 69.2428C632.223 66.344 635.753 64.8945 639.868 64.8945H665.467C670.282 64.8945 674.677 66.0868 678.652 68.4713C682.626 70.8091 685.782 73.9651 688.12 77.9394C690.504 81.9136 691.697 86.3087 691.697 91.1245V137.553H676.898V91.3349C676.898 88.062 675.776 85.28 673.532 82.989C671.334 80.698 668.646 79.5524 665.467 79.5524H639.728V137.553H624.929V79.6226Z" fill="white"/>
<path d="M542.031 79.9031C542.031 75.7419 543.551 72.2118 546.59 69.3129C549.629 66.3673 553.276 64.8945 557.531 64.8945H587.829C591.709 64.8945 595.216 65.853 598.349 67.77C601.528 69.6402 604.053 72.1884 605.923 75.4146C607.84 78.594 608.799 82.124 608.799 86.0047V88.0386C608.799 91.8726 607.84 95.3793 605.923 98.5587C604.053 101.691 601.528 104.216 598.349 106.133C595.216 108.003 591.709 108.938 587.829 108.938H565.246V94.2104H587.969C589.652 94.2104 591.078 93.6025 592.247 92.3869C593.463 91.1712 594.071 89.6984 594.071 87.9685V86.0047C594.071 84.228 593.463 82.7318 592.247 81.5162C591.078 80.3005 589.652 79.6927 587.969 79.6927H556.83V117.004C556.83 118.593 557.367 119.949 558.443 121.072C559.518 122.194 560.827 122.755 562.37 122.755H603.679V137.553H562.37C558.63 137.553 555.217 136.641 552.131 134.818C549.045 132.947 546.59 130.469 544.767 127.384C542.943 124.251 542.031 120.814 542.031 117.074V79.9031Z" fill="white"/>
<path d="M457.591 85.3034C457.591 81.5162 458.526 78.0796 460.396 74.9938C462.313 71.9079 464.838 69.4532 467.97 67.6297C471.15 65.8063 474.656 64.8945 478.49 64.8945H521.132V79.6927H478.49C476.807 79.6927 475.358 80.2538 474.142 81.3759C472.973 82.4513 472.389 83.7605 472.389 85.3034V87.0567C472.389 88.6464 472.973 90.0024 474.142 91.1245C475.358 92.2466 476.807 92.8077 478.49 92.8077H505.001C508.835 92.8077 512.318 93.7428 515.451 95.613C518.63 97.4365 521.155 99.8912 523.025 102.977C524.896 106.063 525.831 109.499 525.831 113.287V117.074C525.831 120.814 524.896 124.251 523.025 127.384C521.155 130.469 518.63 132.947 515.451 134.818C512.318 136.641 508.835 137.553 505.001 137.553H460.887V122.755H505.001C506.684 122.755 508.11 122.194 509.279 121.072C510.495 119.949 511.103 118.593 511.103 117.004V113.357C511.103 111.72 510.495 110.341 509.279 109.219C508.11 108.097 506.684 107.536 505.001 107.536H478.49C474.656 107.536 471.15 106.624 467.97 104.801C464.838 102.93 462.313 100.452 460.396 97.3664C458.526 94.2337 457.591 90.7972 457.591 87.0567V85.3034Z" fill="white"/>
<path d="M376.095 79.9031C376.095 75.7419 377.615 72.2118 380.654 69.3129C383.693 66.3673 387.34 64.8945 391.595 64.8945H421.893C425.773 64.8945 429.28 65.853 432.413 67.77C435.592 69.6402 438.117 72.1884 439.987 75.4146C441.904 78.594 442.863 82.124 442.863 86.0047V88.0386C442.863 91.8726 441.904 95.3793 439.987 98.5587C438.117 101.691 435.592 104.216 432.413 106.133C429.28 108.003 425.773 108.938 421.893 108.938H399.31V94.2104H422.033C423.716 94.2104 425.142 93.6025 426.311 92.3869C427.527 91.1712 428.135 89.6984 428.135 87.9685V86.0047C428.135 84.228 427.527 82.7318 426.311 81.5162C425.142 80.3005 423.716 79.6927 422.033 79.6927H390.894V117.004C390.894 118.593 391.431 119.949 392.507 121.072C393.582 122.194 394.891 122.755 396.434 122.755H437.743V137.553H396.434C392.694 137.553 389.281 136.641 386.195 134.818C383.109 132.947 380.654 130.469 378.831 127.384C377.007 124.251 376.095 120.814 376.095 117.074V79.9031Z" fill="white"/>
<path d="M325.599 85.2333C325.599 81.4928 326.534 78.0796 328.405 74.9938C330.322 71.9079 332.846 69.4532 335.979 67.6297C339.158 65.8063 342.665 64.8945 346.499 64.8945H362.7V79.6226H346.499C344.816 79.6226 343.366 80.207 342.151 81.3759C340.982 82.4981 340.397 83.8774 340.397 85.5138V137.553H325.599V85.2333Z" fill="white"/>
<path d="M242 79.6927C242 75.625 243.449 72.1417 246.348 69.2428C249.247 66.344 252.73 64.8945 256.798 64.8945H282.537C287.353 64.8945 291.748 66.0868 295.722 68.4713C299.697 70.8091 302.853 73.9418 305.19 77.8692C307.575 81.7967 308.767 86.1684 308.767 90.9842V111.323C308.767 116.139 307.575 120.534 305.19 124.508C302.853 128.482 299.697 131.662 295.722 134.046C291.748 136.384 287.353 137.553 282.537 137.553H265.214V122.755H282.537C285.717 122.755 288.405 121.633 290.603 119.388C292.847 117.097 293.969 114.362 293.969 111.183V91.1245C293.969 87.9451 292.847 85.2567 290.603 83.0591C288.405 80.8149 285.717 79.6927 282.537 79.6927H256.798V164.624H242V79.6927Z" fill="white"/>
</svg>
