<svg width="40" height="40" viewBox="0 0 40 40" fill="none" xmlns="http://www.w3.org/2000/svg">
<path d="M26.822 33.5972V38.1024C26.822 38.3405 26.7274 38.5688 26.5591 38.7371C26.3907 38.9054 26.1624 39 25.9244 39H14.0756C13.8375 39 13.6092 38.9054 13.4409 38.7371C13.2725 38.5688 13.178 38.3405 13.178 38.1024V33.5972C13.178 33.3591 13.2725 33.1308 13.4409 32.9625C13.6092 32.7942 13.8375 32.6996 14.0756 32.6996H15.9516C16.1896 32.6996 16.4179 32.605 16.5863 32.4367C16.7546 32.2684 16.8492 32.0401 16.8492 31.802V20.2224C16.8492 19.9843 16.7546 19.756 16.5863 19.5877C16.4179 19.4194 16.1896 19.3248 15.9516 19.3248H14.0756C13.8375 19.3248 13.6092 19.2302 13.4409 19.0619C13.2725 18.8936 13.178 18.6653 13.178 18.4272V13.9248C13.178 13.6867 13.2725 13.4584 13.4409 13.2901C13.6092 13.1218 13.8375 13.0272 14.0756 13.0272H22.2532C22.4912 13.0272 22.7195 13.1218 22.8879 13.2901C23.0562 13.4584 23.1508 13.6867 23.1508 13.9248V31.802C23.1508 32.0401 23.2453 32.2684 23.4137 32.4367C23.582 32.605 23.8103 32.6996 24.0484 32.6996H25.9244C26.1624 32.6996 26.3907 32.7942 26.5591 32.9625C26.7274 33.1308 26.822 33.3591 26.822 33.5972ZM19.102 9.974C21.5804 9.974 23.5892 7.9652 23.5892 5.4868C23.5892 3.0084 21.5804 1 19.1024 1C16.6244 1 14.6156 3.0088 14.6156 5.4868C14.6156 7.9652 16.624 9.974 19.102 9.974Z" fill="white"/>
</svg>
