<svg width="50" height="50" viewBox="0 0 50 50" fill="none" xmlns="http://www.w3.org/2000/svg">
<path d="M37.5 3.125H12.5C7.32233 3.125 3.125 7.32233 3.125 12.5V37.5C3.125 42.6777 7.32233 46.875 12.5 46.875H37.5C42.6777 46.875 46.875 42.6777 46.875 37.5V12.5C46.875 7.32233 42.6777 3.125 37.5 3.125Z" fill="url(#paint0_radial_1933_84)"/>
<path d="M37.5 3.125H12.5C7.32233 3.125 3.125 7.32233 3.125 12.5V37.5C3.125 42.6777 7.32233 46.875 12.5 46.875H37.5C42.6777 46.875 46.875 42.6777 46.875 37.5V12.5C46.875 7.32233 42.6777 3.125 37.5 3.125Z" fill="url(#paint1_radial_1933_84)"/>
<path d="M37.5 3.125H12.5C7.32233 3.125 3.125 7.32233 3.125 12.5V37.5C3.125 42.6777 7.32233 46.875 12.5 46.875H37.5C42.6777 46.875 46.875 42.6777 46.875 37.5V12.5C46.875 7.32233 42.6777 3.125 37.5 3.125Z" fill="url(#paint2_radial_1933_84)"/>
<path d="M35.9375 16.4062C35.9375 17.7006 34.8881 18.75 33.5938 18.75C32.2994 18.75 31.25 17.7006 31.25 16.4062C31.25 15.1118 32.2994 14.0625 33.5938 14.0625C34.8881 14.0625 35.9375 15.1118 35.9375 16.4062Z" fill="white"/>
<path fill-rule="evenodd" clip-rule="evenodd" d="M25 32.8125C29.3147 32.8125 32.8125 29.3147 32.8125 25C32.8125 20.6853 29.3147 17.1875 25 17.1875C20.6853 17.1875 17.1875 20.6853 17.1875 25C17.1875 29.3147 20.6853 32.8125 25 32.8125ZM25 29.6875C27.5889 29.6875 29.6875 27.5889 29.6875 25C29.6875 22.4111 27.5889 20.3125 25 20.3125C22.4111 20.3125 20.3125 22.4111 20.3125 25C20.3125 27.5889 22.4111 29.6875 25 29.6875Z" fill="white"/>
<path fill-rule="evenodd" clip-rule="evenodd" d="M9.375 24.375C9.375 19.1245 9.375 16.4992 10.3968 14.4938C11.2956 12.7298 12.7298 11.2956 14.4938 10.3968C16.4992 9.375 19.1245 9.375 24.375 9.375H25.625C30.8755 9.375 33.5008 9.375 35.5061 10.3968C37.2702 11.2956 38.7044 12.7298 39.6031 14.4938C40.625 16.4992 40.625 19.1245 40.625 24.375V25.625C40.625 30.8755 40.625 33.5008 39.6031 35.5061C38.7044 37.2702 37.2702 38.7044 35.5061 39.6031C33.5008 40.625 30.8755 40.625 25.625 40.625H24.375C19.1245 40.625 16.4992 40.625 14.4938 39.6031C12.7298 38.7044 11.2956 37.2702 10.3968 35.5061C9.375 33.5008 9.375 30.8755 9.375 25.625V24.375ZM24.375 12.5H25.625C28.3019 12.5 30.1214 12.5024 31.528 12.6173C32.8981 12.7293 33.5987 12.9322 34.0875 13.1812C35.2634 13.7804 36.2195 14.7365 36.8187 15.9125C37.0678 16.4013 37.2708 17.1019 37.3827 18.472C37.4975 19.8786 37.5 21.6981 37.5 24.375V25.625C37.5 28.3019 37.4975 30.1214 37.3827 31.528C37.2708 32.8981 37.0678 33.5987 36.8187 34.0875C36.2195 35.2634 35.2634 36.2195 34.0875 36.8187C33.5987 37.0678 32.8981 37.2708 31.528 37.3827C30.1214 37.4975 28.3019 37.5 25.625 37.5H24.375C21.6981 37.5 19.8786 37.4975 18.472 37.3827C17.1019 37.2708 16.4013 37.0678 15.9125 36.8187C14.7365 36.2195 13.7804 35.2634 13.1812 34.0875C12.9322 33.5987 12.7293 32.8981 12.6173 31.528C12.5024 30.1214 12.5 28.3019 12.5 25.625V24.375C12.5 21.6981 12.5024 19.8786 12.6173 18.472C12.7293 17.1019 12.9322 16.4013 13.1812 15.9125C13.7804 14.7365 14.7365 13.7804 15.9125 13.1812C16.4013 12.9322 17.1019 12.7293 18.472 12.6173C19.8786 12.5024 21.6981 12.5 24.375 12.5Z" fill="white"/>
<defs>
<radialGradient id="paint0_radial_1933_84" cx="0" cy="0" r="1" gradientUnits="userSpaceOnUse" gradientTransform="translate(18.75 35.9375) rotate(-55.3758) scale(39.8744)">
<stop stop-color="#B13589"/>
<stop offset="0.79309" stop-color="#C62F94"/>
<stop offset="1" stop-color="#8A3AC8"/>
</radialGradient>
<radialGradient id="paint1_radial_1933_84" cx="0" cy="0" r="1" gradientUnits="userSpaceOnUse" gradientTransform="translate(17.1875 48.4375) rotate(-65.1363) scale(35.3034)">
<stop stop-color="#E0E8B7"/>
<stop offset="0.444662" stop-color="#FB8A2E"/>
<stop offset="0.71474" stop-color="#E2425C"/>
<stop offset="1" stop-color="#E2425C" stop-opacity="0"/>
</radialGradient>
<radialGradient id="paint2_radial_1933_84" cx="0" cy="0" r="1" gradientUnits="userSpaceOnUse" gradientTransform="translate(0.781251 4.6875) rotate(-8.1301) scale(60.767 12.9974)">
<stop offset="0.156701" stop-color="#406ADC"/>
<stop offset="0.467799" stop-color="#6A45BE"/>
<stop offset="1" stop-color="#6A45BE" stop-opacity="0"/>
</radialGradient>
</defs>
</svg>
