<svg width="50" height="50" viewBox="0 0 50 50" fill="none" xmlns="http://www.w3.org/2000/svg">
<path d="M44.3615 6.0708C38.2095 8.6188 11.8305 19.5453 4.542 22.5233C-0.346001 24.4308 2.5155 26.2193 2.5155 26.2193C2.5155 26.2193 6.688 27.6498 10.265 28.7228C13.8415 29.7958 15.749 28.6038 15.749 28.6038L32.559 17.2778C38.52 13.2243 37.0895 16.5623 35.6585 17.9933C32.559 21.0933 27.4325 25.9808 23.1405 29.9153C21.233 31.5843 22.1865 33.0148 23.0215 33.7303C26.121 36.3533 34.586 41.7183 35.0625 42.0758C37.581 43.8588 42.535 46.4253 43.2885 41.0028L46.269 22.2853C47.223 15.9668 48.1765 10.1248 48.2955 8.4558C48.6535 4.4018 44.3615 6.0708 44.3615 6.0708Z" fill="#1B92D1"/>
</svg>
