<svg width="50" height="50" viewBox="0 0 50 50" fill="none" xmlns="http://www.w3.org/2000/svg">
<path fill-rule="evenodd" clip-rule="evenodd" d="M50 9.09861C48.1628 9.93525 46.1848 10.501 44.1099 10.7538C46.2288 9.45373 47.8547 7.39222 48.6206 4.93646C46.6367 6.14026 44.4445 7.01602 42.1025 7.4855C40.236 5.44204 37.5682 4.16602 34.6158 4.16602C28.9546 4.16602 24.3617 8.87589 24.3617 14.6842C24.3617 15.5089 24.4497 16.3094 24.6258 17.0798C16.1002 16.6404 8.54317 12.4572 3.48066 6.08608C2.59729 7.64501 2.09249 9.45373 2.09249 11.3798C2.09249 15.0273 3.90327 18.2475 6.65611 20.1345C4.97741 20.0833 3.39261 19.6048 2.00739 18.8223V18.9517C2.00739 24.0498 5.54381 28.3023 10.2395 29.2653C9.37958 29.5121 8.47273 29.6355 7.53654 29.6355C6.87621 29.6355 6.23055 29.5723 5.60544 29.4489C6.91142 33.6261 10.6973 36.6687 15.1875 36.75C11.6775 39.5729 7.25185 41.2552 2.44761 41.2552C1.61999 41.2552 0.801197 41.2071 0 41.1108C4.54012 44.0902 9.93426 45.8327 15.7246 45.8327C34.5953 45.8327 44.9111 29.807 44.9111 15.9061C44.9111 15.4487 44.9023 14.9912 44.8846 14.5428C46.8891 13.0591 48.6295 11.2083 50 9.09861Z" fill="#00AAEC"/>
</svg>
