<svg width="50" height="50" viewBox="0 0 50 50" fill="none" xmlns="http://www.w3.org/2000/svg">
<g clip-path="url(#clip0_1933_116)">
<path d="M43.0321 28.8432C44.6907 30.4625 46.4412 31.9859 47.9288 33.7686C48.5859 34.5607 49.208 35.3781 49.684 36.2975C50.3584 37.6043 49.7476 39.0424 48.5758 39.1204L41.2916 39.1171C39.4129 39.273 37.9142 38.5167 36.654 37.2321C35.6455 36.2049 34.7115 35.1116 33.7418 34.0497C33.3443 33.6157 32.9281 33.2073 32.4311 32.8845C31.4367 32.2391 30.5735 32.4366 30.0053 33.4737C29.4266 34.5286 29.2952 35.6966 29.2384 36.8722C29.1604 38.5874 28.6419 39.0384 26.919 39.1169C23.2368 39.2905 19.7423 38.7335 16.4959 36.876C13.6338 35.2385 11.4145 32.9267 9.48263 30.3096C5.72159 25.2136 2.84122 19.6138 0.252551 13.8571C-0.330164 12.5602 0.0960082 11.864 1.52706 11.8393C3.90333 11.7931 6.27931 11.7964 8.65841 11.8359C9.62423 11.8501 10.2636 12.404 10.6365 13.3164C11.9222 16.4776 13.4953 19.4853 15.4699 22.273C15.9958 23.0152 16.532 23.7575 17.2955 24.2799C18.1402 24.8583 18.7834 24.6666 19.1808 23.7256C19.4329 23.1289 19.5434 22.4862 19.6002 21.8473C19.7885 19.6487 19.8133 17.4539 19.4831 15.2631C19.2804 13.8958 18.5103 13.0106 17.1459 12.752C16.4497 12.62 16.5533 12.3609 16.8904 11.9636C17.4759 11.2782 18.0266 10.8516 19.1243 10.8516H27.3566C28.6526 11.1073 28.9403 11.6896 29.1178 12.9936L29.1248 22.1378C29.1107 22.6426 29.377 24.1407 30.2862 24.4748C31.014 24.7127 31.4937 24.1305 31.9304 23.669C33.9014 21.5771 35.3081 19.1049 36.5649 16.5449C37.1226 15.4192 37.6022 14.2503 38.0669 13.0822C38.4112 12.2155 38.9516 11.7891 39.9278 11.8079L47.8509 11.8149C48.0859 11.8149 48.3235 11.8184 48.5511 11.8573C49.8861 12.0849 50.2521 12.6592 49.8397 13.9629C49.19 16.0083 47.9258 17.7129 46.6898 19.4253C45.3685 21.2535 43.9553 23.0192 42.645 24.8583C41.4411 26.538 41.5367 27.3845 43.0321 28.8432Z" fill="#436EAB"/>
</g>
<defs>
<clipPath id="clip0_1933_116">
<rect width="50" height="50" fill="white"/>
</clipPath>
</defs>
</svg>
