<svg width="50" height="50" viewBox="0 0 50 50" fill="none" xmlns="http://www.w3.org/2000/svg">
<g clip-path="url(#clip0_1933_108)">
<path fill-rule="evenodd" clip-rule="evenodd" d="M24.9928 0C11.2107 0 0 11.2138 0 24.9998C0 30.4671 1.76317 35.5375 4.76042 39.6531L1.64541 48.9415L11.2546 45.8704C15.2069 48.4864 19.9234 50 25.0072 50C38.7893 50 50 38.7858 50 25.0002C50 11.2143 38.7893 0.000413259 25.0072 0.000413259L24.9928 0ZM18.0134 12.6988C17.5286 11.5378 17.1612 11.4938 16.4268 11.464C16.1768 11.4494 15.8981 11.4349 15.5892 11.4349C14.6338 11.4349 13.6349 11.7141 13.0323 12.3313C12.298 13.0808 10.4759 14.8296 10.4759 18.4158C10.4759 22.0021 13.0912 25.4706 13.4437 25.9559C13.8111 26.4403 18.5425 33.9066 25.8888 36.9495C31.6337 39.3304 33.3384 39.1097 34.6459 38.8305C36.5559 38.4191 38.9511 37.0075 39.5536 35.3032C40.1561 33.598 40.1561 32.1429 39.9794 31.8343C39.8032 31.5257 39.318 31.3498 38.5836 30.9819C37.8492 30.6144 34.2785 28.8507 33.6026 28.6155C32.9412 28.3658 32.3096 28.4541 31.8104 29.1597C31.105 30.1444 30.4146 31.1441 29.856 31.7464C29.4152 32.2167 28.6949 32.2756 28.0928 32.0255C27.2846 31.6879 25.0222 30.8935 22.2302 28.4098C20.0702 26.4847 18.601 24.0893 18.1751 23.3692C17.7488 22.6347 18.1311 22.2078 18.4687 21.8113C18.8361 21.3554 19.1886 21.0323 19.556 20.6059C19.9234 20.1799 20.1291 19.9593 20.3642 19.4594C20.6142 18.9745 20.4376 18.4747 20.2613 18.1072C20.0851 17.7397 18.6159 14.1534 18.0134 12.6988Z" fill="#67C15E"/>
</g>
<defs>
<clipPath id="clip0_1933_108">
<rect width="50" height="50" fill="white"/>
</clipPath>
</defs>
</svg>
